C:\Users\lingh\OneDrive - KTH\ExMaterials\7-Doctor\Research\PredSimResults\weak_Falisse_et_al_2022\weak_Falisse_et_al_2022_job1.mot
version=1
nRows=4
nColumns=124
inDegrees=yes
endheader
                time	         pelvis_tilt	         pelvis_list	     pelvis_rotation	           pelvis_tx	           pelvis_ty	           pelvis_tz	       hip_flexion_r	     hip_adduction_r	      hip_rotation_r	        knee_angle_r	       ankle_angle_r	    subtalar_angle_r	         mtp_angle_r	       hip_flexion_l	     hip_adduction_l	      hip_rotation_l	        knee_angle_l	       ankle_angle_l	    subtalar_angle_l	         mtp_angle_l	    lumbar_extension	      lumbar_bending	     lumbar_rotation	          arm_flex_r	           arm_add_r	           arm_rot_r	        elbow_flex_r	          arm_flex_l	           arm_add_l	           arm_rot_l	        elbow_flex_l	glut_med1_r/activation	glut_med2_r/activation	glut_med3_r/activation	glut_min1_r/activation	glut_min2_r/activation	glut_min3_r/activation	semimem_r/activation	semiten_r/activation	bifemlh_r/activation	bifemsh_r/activation	    sar_r/activation	add_long_r/activation	add_brev_r/activation	add_mag1_r/activation	add_mag2_r/activation	add_mag3_r/activation	    tfl_r/activation	   pect_r/activation	   grac_r/activation	glut_max1_r/activation	glut_max2_r/activation	glut_max3_r/activation	iliacus_r/activation	  psoas_r/activation	quad_fem_r/activation	    gem_r/activation	   peri_r/activation	rect_fem_r/activation	vas_med_r/activation	vas_int_r/activation	vas_lat_r/activation	med_gas_r/activation	lat_gas_r/activation	 soleus_r/activation	tib_post_r/activation	flex_dig_r/activation	flex_hal_r/activation	tib_ant_r/activation	per_brev_r/activation	per_long_r/activation	per_tert_r/activation	ext_dig_r/activation	ext_hal_r/activation	glut_med1_l/activation	glut_med2_l/activation	glut_med3_l/activation	glut_min1_l/activation	glut_min2_l/activation	glut_min3_l/activation	semimem_l/activation	semiten_l/activation	bifemlh_l/activation	bifemsh_l/activation	    sar_l/activation	add_long_l/activation	add_brev_l/activation	add_mag1_l/activation	add_mag2_l/activation	add_mag3_l/activation	    tfl_l/activation	   pect_l/activation	   grac_l/activation	glut_max1_l/activation	glut_max2_l/activation	glut_max3_l/activation	iliacus_l/activation	  psoas_l/activation	quad_fem_l/activation	    gem_l/activation	   peri_l/activation	rect_fem_l/activation	vas_med_l/activation	vas_int_l/activation	vas_lat_l/activation	med_gas_l/activation	lat_gas_l/activation	 soleus_l/activation	tib_post_l/activation	flex_dig_l/activation	flex_hal_l/activation	tib_ant_l/activation	per_brev_l/activation	per_long_l/activation	per_tert_l/activation	ext_dig_l/activation	ext_hal_l/activation	 ercspn_r/activation	 ercspn_l/activation	 intobl_r/activation	 intobl_l/activation	 extobl_r/activation	 extobl_l/activation	
          1.08928525	         -7.98789274	         -3.91147135	          6.56597774	          1.43187949	          0.89711141	         -0.00743143	         35.13477113	          3.07239259	         -4.24004682	        -11.41680954	         10.99124907	         -5.71190781	          0.29058218	        -13.95140246	         -2.23913761	          7.86732531	         -5.57161637	          1.59158479	         -2.18735282	         34.67581283	          2.58833694	          1.02297417	         -1.08293172	         -4.40457766	        -13.49492110	         17.38749685	          3.32104294	         -3.70913557	        -13.46593005	         16.48964584	         85.15713015	          0.05073108	          0.05907733	          0.05000021	          0.05907756	          0.05907744	          0.05900559	          0.23982570	          0.05907757	          0.07448866	          0.05000015	          0.05000053	          0.09745106	          0.15934397	          0.25780472	          0.21895502	          0.13991924	          0.05000005	          0.06340323	          0.08942303	          0.05000101	          0.05215176	          0.17630901	          0.06972693	          0.05169414	          0.16916227	          0.19750278	          0.20325825	          0.05739058	          0.16004592	          0.15629197	          0.13642169	          0.05907734	          0.05227340	          0.05868540	          0.05000000	          0.05000003	          0.05000004	          0.64724109	          0.33160759	          0.20325164	          0.39789939	          0.62299060	          0.32093303	          0.09624004	          0.07032022	          0.06829403	          0.25479013	          0.24830926	          0.19831149	          0.05000009	          0.05000003	          0.05000002	          0.08224565	          0.10897085	          0.07776424	          0.05294759	          0.05000016	          0.05000020	          0.05000006	          0.40519673	          0.08247735	          0.05000616	          0.05000171	          0.05000033	          0.05000008	          0.26190524	          0.59317333	          0.08247551	          0.08247546	          0.15659993	          0.10389620	          0.05000009	          0.05000008	          0.05000008	          0.29678736	          0.44404193	          0.31167204	          0.49196356	          0.57804842	          0.55362709	          0.05000001	          0.05000002	          0.05000000	          0.05000006	          0.05000001	          0.05000010	          0.10339466	          0.06023703	          0.11189123	          0.05000000	          0.08247505	          0.05000000	
          1.10017810	         -7.97735928	         -4.04853806	          6.86237805	          1.44905794	          0.89547168	         -0.00728380	         34.62326965	          3.38221275	         -3.94900111	        -11.77886119	         10.23120361	         -6.09988906	          0.33135148	        -13.75244922	         -2.45790089	          7.39393968	         -7.85171185	          1.14571108	         -1.62476831	         36.14276817	          2.73865677	          1.28202531	         -1.11223399	         -5.21625223	        -13.52037718	         16.81345929	          2.57267621	         -4.16631575	        -13.48567503	         16.89492984	         87.72426386	          0.05000000	          0.05000001	          0.05000097	          0.05000017	          0.05000008	          0.05000006	          0.20297596	          0.05000023	          0.06304332	          0.05000007	          0.05000029	          0.08247753	          0.13486051	          0.21819276	          0.18531273	          0.15220749	          0.05000279	          0.06980172	          0.08429492	          0.08447016	          0.12006525	          0.14922410	          0.05901391	          0.05000278	          0.34271007	          0.16715604	          0.17202722	          0.06980272	          0.21686937	          0.23484205	          0.19448016	          0.05000001	          0.05000003	          0.05000000	          0.06980270	          0.05907762	          0.05907914	          0.54779099	          0.37477132	          0.24336360	          0.33676134	          0.55135092	          0.27162094	          0.08145255	          0.05951536	          0.05780049	          0.21564109	          0.21015598	          0.16784048	          0.05000154	          0.05000074	          0.05000100	          0.06960843	          0.09222726	          0.16536183	          0.05000010	          0.22808795	          0.05908327	          0.18266871	          0.34293734	          0.06980464	          0.05000152	          0.05000026	          0.05907826	          0.05908387	          0.22166290	          0.50379463	          0.06980297	          0.06980299	          0.13253799	          0.08793231	          0.05980817	          0.06934477	          0.08105753	          0.25118529	          0.37581389	          0.30030557	          0.44181058	          0.48928036	          0.48600033	          0.05000002	          0.05000007	          0.05000006	          0.05000007	          0.05000002	          0.05000013	          0.08750784	          0.07386278	          0.09469888	          0.05907738	          0.06980257	          0.05000003	
          1.11107095	         -7.96142477	         -4.16936975	          7.13381450	          1.46644513	          0.89386396	         -0.00711559	         33.98491408	          3.64468978	         -3.64889726	        -12.50083494	          9.58312009	         -6.51023980	          0.27222749	        -13.42793471	         -2.66044108	          6.87807203	        -10.37120929	          0.62456086	         -1.07286573	         37.33855673	          2.90443929	          1.53121461	         -1.13361853	         -6.06346606	        -13.55173519	         16.24426451	          1.98877909	         -4.63947952	        -13.50413065	         17.28386871	         90.06619605	          0.28356656	          0.34348751	          0.44554344	          0.31640379	          0.29750300	          0.36648110	          0.17178830	          0.05000051	          0.07392167	          0.07529489	          0.05907723	          0.06980468	          0.11413889	          0.18466696	          0.15683903	          0.12995367	          0.05000025	          0.05907678	          0.07134290	          0.25839153	          0.19090446	          0.12629599	          0.05000209	          0.05000151	          0.29005335	          0.14147379	          0.40477348	          0.05907738	          0.18354690	          0.19875804	          0.16459784	          0.05204016	          0.05485031	          0.05000030	          0.05907737	          0.05000033	          0.05000155	          0.61908424	          0.39027187	          0.20597038	          0.28501803	          0.67074428	          0.26039130	          0.24025682	          0.05037075	          0.05000008	          0.29708343	          0.17786505	          0.14205141	          0.05000092	          0.05000012	          0.05000013	          0.05891295	          0.07805636	          0.13995367	          0.22540485	          0.19304176	          0.05000526	          0.15460140	          0.36558857	          0.05907943	          0.05000046	          0.05000095	          0.05000097	          0.05000559	          0.18760389	          0.46405336	          0.05907760	          0.05907768	          0.11217322	          0.07442132	          0.05061858	          0.05868986	          0.06860292	          0.21259009	          0.31806923	          0.26963686	          0.43489499	          0.48043669	          0.48032150	          0.05000248	          0.05000002	          0.05000000	          0.05000006	          0.05000003	          0.05000041	          0.09013023	          0.07857702	          0.12019411	          0.05000001	          0.05907725	          0.05000001	
          1.12196380	         -7.94344492	         -4.27195374	          7.37334728	          1.48381923	          0.89241279	         -0.00689180	         33.27449674	          3.90074202	         -3.33588810	        -13.16487971	          9.03807714	         -6.94117687	          0.26530146	        -12.95151336	         -2.85219375	          6.35115137	        -13.13988899	          0.05544227	         -0.51398751	         38.08153211	          3.06486895	          1.76968242	         -1.14892556	         -6.89075427	        -13.58058625	         15.69895816	          1.53381506	         -5.09807256	        -13.52173077	         17.64925957	         92.14513135	          0.39735743	          0.51197921	          0.63546853	          0.26778810	          0.36699343	          0.48880860	          0.14539263	          0.08666531	          0.06701445	          0.06372606	          0.05000014	          0.05907904	          0.09660120	          0.15629253	          0.14213280	          0.16485532	          0.05000014	          0.05000095	          0.07575109	          0.37309427	          0.25407895	          0.18237044	          0.05000002	          0.05000002	          0.24920927	          0.11973613	          0.40044485	          0.05000002	          0.15534479	          0.20181314	          0.15421806	          0.05000000	          0.05000001	          0.05000000	          0.05000001	          0.05000006	          0.05000006	          0.72780989	          0.43465972	          0.22895589	          0.58580337	          0.68957253	          0.42324745	          0.25502208	          0.05000008	          0.05000003	          0.29700538	          0.15053570	          0.12022489	          0.05641642	          0.05000015	          0.05000010	          0.05000003	          0.06606286	          0.18678847	          0.26263623	          0.16338077	          0.10375869	          0.13604294	          0.39282178	          0.05000214	          0.05000033	          0.05000147	          0.05000106	          0.05000098	          0.15877813	          0.42653632	          0.05000022	          0.05000042	          0.09493755	          0.06298632	          0.07874366	          0.07709470	          0.06608368	          0.17992513	          0.26919716	          0.25407118	          0.38607660	          0.40661684	          0.41687388	          0.05000003	          0.05000007	          0.05000007	          0.05000009	          0.05000003	          0.05000017	          0.10916198	          0.10477233	          0.12450406	          0.05000000	          0.05000002	          0.05000001	
